# xmcd
#
# Track frame offsets:
#	150
#	19875
#	38129
#	54814
#	73661
#	90014
#	112051
#	129968
#	148909
#	168126
#	184908
#	203697
#	221810
#
# Disc length: 3208 seconds
#
# Revision: 3
# Processed by: cddbd v1.5.2PL0 Copyright (c) Steve Scherf et al.
# Submitted via: EasyCDDAExtractor 15.3.0.1
#
DISCID=b20c860d
DTITLE=Gloria Estefan - The Standards
DYEAR=2013
DGENRE=Pop
TTITLE0=Good Morning Heartache
TTITLE1=They Can't Take That Away From Me
TTITLE2=What A Difference A Day Makes
TTITLE3=I've Grown Accustomed To His Face
TTITLE4=Eu Sei Que Vou Te Amar
TTITLE5=The Day You Say You Love Me
TTITLE6=Embraceable You
TTITLE7=What A Wonderful World
TTITLE8=How Long Has This Been Going On
TTITLE9=Sonrie (Duet With Laura Pausini)
TTITLE10=The Way You Look Tonight
TTITLE11=You Made Me Love You
TTITLE12=Young At Heart
EXTD=
EXTT0=
EXTT1=
EXTT2=
EXTT3=
EXTT4=
EXTT5=
EXTT6=
EXTT7=
EXTT8=
EXTT9=
EXTT10=
EXTT11=
EXTT12=
PLAYORDER=
